<?xml version="1.0" encoding="utf-8"?>
<!-- Generator: Adobe Illustrator 25.2.0, SVG Export Plug-In . SVG Version: 6.00 Build 0)  -->
<svg version="1.1" id="Modo_de_aislamiento" xmlns="http://www.w3.org/2000/svg" xmlns:xlink="http://www.w3.org/1999/xlink"
	 x="0px" y="0px" width="363.62px" height="127.86px" viewBox="0 0 363.62 127.86" enable-background="new 0 0 363.62 127.86"
	 xml:space="preserve">
<g>
	<path fill="#FFFFFF" d="M62.94,88.47c0.65-0.51,2.53-1.14,6-2.22c2.29-0.71,5.29-1.62,9.1-2.81c0.4-0.13,0.8-0.25,1.22-0.38
		c3.17-1,5.4-2.1,6.82-3.48c1.21-1.18,1.84-2.55,1.86-4.25c0.12-9.8-8.16-15.86-18.55-14.1c-0.46,0.08-0.91,0.2-1.37,0.3
		c-2.95,0.68-5.71,1.92-8.21,3.7c-2.17,1.55-4.14,3.49-5.82,5.86c-0.03,0.05-0.06,0.09-0.09,0.14c-3.44,4.9-5.31,10.33-5.38,15.83
		c-0.14,11.61,8.35,19.38,20.56,17.32c4.54-0.77,8.73-2.68,12.39-5.57c1.94-1.53,3.75-3.32,5.37-5.39c0.18-0.23,0.31-0.49,0.39-0.76
		c0.23-0.83-0.04-1.75-0.77-2.3l-0.25-0.19c-0.21,0.27-0.45,0.52-0.68,0.78c-1.83,2.07-4.16,3.92-6.65,5.25
		c-1.83,0.98-3.73,1.69-5.57,2c-5.95,1-10.8-2.37-11.53-7.04C61.67,90.53,61.8,89.36,62.94,88.47 M60.54,84.51
		c-0.19-2.11-0.09-4.3,0.29-6.39c0.57-3.19,1.8-6.14,3.69-8.22c1.38-1.51,3.1-2.57,5.18-2.92c1.69-0.29,3.16-0.12,4.33,0.53
		c0.77,0.42,1.41,1.06,1.9,1.9c0.76,1.3,1.17,3.11,1.14,5.47c-0.02,1.3-0.44,2.24-3.58,3.57c-0.1,0.04-0.2,0.08-0.3,0.13
		c-2.69,1.14-5.31,2.19-8.48,3.43c-0.17,0.06-0.31,0.12-0.48,0.19C60.83,83.52,60.54,84.51,60.54,84.51"/>
	<path fill="#FFFFFF" d="M358.65,21.52c-1.01-1.12-2.17-2.13-3.47-2.97c-0.42-0.27-0.84-0.53-1.28-0.77
		c-0.2-0.11-0.41-0.19-0.62-0.29c-0.57-0.28-1.16-0.52-1.77-0.75c-1.42-0.52-2.93-0.9-4.53-1.07c-2.29-0.25-4.53-0.12-6.69,0.38
		c-1.35,0.31-2.66,0.77-3.92,1.39c-1.92,0.94-3.74,2.22-5.39,3.87c-3.03,3.01-5.23,6.59-6.49,10.55c-0.41,1.29-0.72,2.62-0.93,3.98
		c-0.45,2.99-0.32,5.87,0.32,8.54c0.71,2.99,2.07,5.69,3.96,7.94c3.02,3.59,7.4,6.05,12.83,6.65c6.74,0.75,13.07-1.37,18.33-6.04
		c0.9-0.8,1.02-2.15,0.26-3.08l-0.35-0.42c-3.54,3.09-8.85,5-13.38,4.5c-5.44-0.6-9.41-4.82-9.92-9.38c-0.03-0.3-0.05-0.6-0.05-0.9
		c-0.01-0.64,0.27-1.78,1.48-2.37c0.37-0.18,1.09-0.3,2.22-0.39c2.48-0.19,6.92-0.25,14.04-0.53c5.83-0.23,8.77-1.65,9.33-5.36
		c0.02-0.13,0.02-0.25,0.04-0.38c0.61-4.71-0.73-9.07-3.42-12.43C359.06,21.97,358.85,21.75,358.65,21.52 M348.46,34.15
		c-0.95,0.14-1.88,0.27-2.83,0.4c-2.02,0.27-4.09,0.53-6.5,0.8c-3.4,0.39-3.82,1.3-3.82,1.3c0.08-1.45,0.28-2.89,0.59-4.29
		c0.71-3.16,2.03-6.04,3.86-8.04c1.77-1.94,4.02-3.06,6.69-2.76c0.07,0.01,0.13,0.03,0.2,0.04c0.08,0.01,0.16,0.03,0.24,0.05
		c1.16,0.19,2.15,0.59,2.99,1.19c0.65,0.47,1.21,1.06,1.63,1.79c0.18,0.31,0.33,0.63,0.47,0.98c0.24,0.63,0.4,1.33,0.49,2.1
		c0.13,1.13,0.11,2.4-0.11,3.84c-0.11,0.7-0.32,1.26-0.98,1.7C350.81,33.63,349.93,33.93,348.46,34.15"/>
	<path fill="#FFFFFF" d="M222.91,64.14c-8.14,1.31-17.2-2.65-20.36-10.53c-0.27-0.67-0.97-1.06-1.68-0.91l-0.58,0.12l-0.27,21.94
		c5.24-4.8,11.68-3.35,22.32-5.06c12.88-2.07,22.21-9.95,23.32-22.71c1.16-13.33-8.84-16.34-18.53-18.67l-4.65-1.11
		c-5.04-1.14-10.67-2.51-10.15-8.48c0.44-5.09,6.01-7.9,10.09-8.56c7.24-1.16,13.5,0.98,16.35,7.85c0.51,1.23,1.78,1.96,3.09,1.73
		l1.15-0.2L243.25,0c-0.59,1-3.1,3.04-5.14,3.64c-4.85,1.41-7.17,0.02-16.33,1.5c-10.04,1.61-19.44,8.45-20.46,20.06
		c-1.26,14.43,12.65,17.15,23.14,19.65c5.05,1.15,10.68,3.01,10.15,9.07C234.15,59.04,229.65,63.06,222.91,64.14"/>
	<path fill="#FFFFFF" d="M180.78,49.96c-8.7,2.78-25.91,5.57-26.08,19.81c-0.1,8.3,6.92,10.48,13.64,9.44
		c5.07-0.77,8.45-2.67,12.47-6.7c0.69,2.24,2.72,4.34,6.53,3.76c4.86-0.75,7.57-5.26,7.57-5.26s-2.6-0.38-2.54-5.28l0.24-19.28
		c0.08-6.77-4.42-13.38-15.6-11.66c-13.91,2.14-18.83,9.02-18.88,13.21c-0.05,2.9,2.46,4.56,5.09,4.16
		c3.19-0.49,5.46-3.96,6.48-7.02c1.19-3.42,2.43-4.79,5.85-5.31c4.86-0.75,5.34,3.74,5.28,7.84L180.78,49.96z M180.56,64.98
		l-0.01,0.39c-0.03,2.45-1.39,4.72-3.57,5.83c-1.16,0.59-2.45,0.95-3.81,1.16c-3.85,0.59-6.25-1.33-6.19-5.17
		c0.1-6.61,3.9-9.67,9.32-11.26c2.67-0.78,3.93-1.46,4.43-2.76L180.56,64.98z"/>
	<path fill="#FFFFFF" d="M258.34,21.53l-11.28,5.09c0,0,2.61,0.19,2.55,5.05l-0.27,22c-0.1,7.08,4.35,12.15,12.19,11.32
		c5.81-0.61,10.47-3.86,13.81-8.37c0.01-0.02,0.02-0.03,0.04-0.05l0,0.24c-0.03,2.7,1.95,6.43,6.8,5.92
		c4.86-0.52,7.56-4.91,7.56-4.91s-2.57-0.51-2.51-5.4l0.39-31.55c0.02-1.67-1.54-2.71-3.15-2.13l-11.28,5.09
		c0,0,2.62,0.18,2.55,5.05l-0.27,21.75c-1.94,2.62-5.45,5.67-8.7,6.12c-3.44,0.48-5.68-2.33-5.62-6.77l0.33-26.34
		C261.49,21.99,259.96,20.94,258.34,21.53"/>
	<path fill="#FFFFFF" d="M109.02,93.23c4.27-0.94,8.48-3.53,11.75-7.89c0.52,2.38,2.56,4.74,6.67,3.83
		c4.87-1.07,7.57-5.76,7.57-5.76s-2.56-0.21-2.5-5.1l0.64-51.96c0.02-1.66-1.54-2.53-3.16-1.76l-11.29,6.37c0,0,2.6-0.12,2.53,4.75
		l-0.2,16.5c-3.32-2.27-7.22-3.09-11.4-2.18c-7.62,1.68-18.55,10.38-18.75,26.43c-0.05,3.78,0.63,7.13,1.94,9.85
		c1.39,2.88,3.51,5.05,6.27,6.27C101.8,93.78,105.12,94.09,109.02,93.23 M112.33,55.66c3.14-0.69,6.6,0.53,8.63,2.03l-0.27,22.11
		c-2.16,3.12-4.29,5.7-7.89,6.49c-7.46,1.64-9.69-7.94-9.61-13.91C103.37,59.66,109.38,56.31,112.33,55.66"/>
	<path fill="#FFFFFF" d="M325.43,22.64c0.04-3.46-1.94-6.57-6.27-6.34c-6.34,0.33-10.62,6.64-12.65,10.72l0.03-1.7
		c0,0-0.01,0.01-0.02,0.01l0.08-5.75c0.02-1.66-1.53-2.8-3.15-2.3l-11.27,4.48c0,0,2.62,0.33,2.55,5.19l-0.33,26.63
		c-0.09,6.49-2.11,7.09-2.11,7.09l3.69-0.3l12.13-0.97c0,0-2.04-1.2-1.97-6.59l0.03-2.63l0.2-16.49c0.8-2.16,3.37-6.3,6.12-6.44
		c2.39-0.12,4.44,1.44,6.97,1.31C322.4,28.42,325.39,25.63,325.43,22.64"/>
	<path fill="#FFFFFF" d="M139.87,50.68l-0.33,26.87c-0.07,6.54-2.04,7.49-2.04,7.49l15.71-3.42c0,0-2.03-0.88-1.98-6.31l0.42-33.99
		c0.02-1.68-1.53-2.57-3.13-1.8l-11.18,6.36C137.33,45.87,139.93,45.77,139.87,50.68"/>
	<path fill="#FFFFFF" d="M145.3,37.77c3.81-0.83,6.85-4.67,6.9-8.71c0.05-3.97-2.92-6.58-6.73-5.75c-3.73,0.81-6.86,4.76-6.91,8.72
		C138.51,36.07,141.56,38.59,145.3,37.77"/>
	<path fill="#FFFFFF" d="M50.18,64.89c0.11-8.72-4.45-15.31-16.2-13.6c-2.6,0.38-5.54,1.16-8.87,2.41L1.06,62.78
		c0,0,2.93,0.11,2.82,9.38l-0.57,46.1c-0.09,7.24-3.3,9.59-3.3,9.59l19.65-7.42c0,0-3.02-0.11-2.94-7.26l0.16-12.98l6.57-2.48
		c11.13-4.21,25.01-15.65,26.58-30.4C50.11,66.53,50.17,65.71,50.18,64.89 M21.79,93.14l-4.84,1.83l0.34-25.03
		c0.07-4.8-0.85-6.98-3.39-6.96c0.85-0.38,8.36-3.23,9.67-3.73c7.71-2.91,12.47,1.78,12.33,11.21
		C35.76,80.67,31.56,89.46,21.79,93.14"/>
	<path fill="#FFFFFF" d="M360.79,10.25v-0.04c0.44-0.12,0.75-0.42,0.75-0.82c0-0.35-0.15-0.63-0.34-0.79
		c-0.26-0.16-0.56-0.27-1.24-0.28c-0.01,0-0.02,0-0.03,0c-0.57-0.01-1.02,0.03-1.34,0.09l-0.02,1.27l-0.03,2.3l0.83,0.01l0.02-1.44
		l0.39,0c0.46,0.01,0.67,0.18,0.73,0.57c0.1,0.41,0.17,0.74,0.27,0.87l0.89,0.01c-0.09-0.13-0.15-0.35-0.25-0.9
		C361.33,10.65,361.14,10.39,360.79,10.25 M359.81,9.98l-0.39,0l0.01-1.02c0.09-0.02,0.24-0.04,0.46-0.04
		c0.52,0.01,0.76,0.23,0.76,0.55C360.64,9.84,360.27,9.99,359.81,9.98"/>
	<path fill="#FFFFFF" d="M361.41,6.85c-0.43-0.18-0.9-0.28-1.4-0.29c-2.04-0.03-3.7,1.54-3.72,3.52c-0.01,0.56,0.12,1.08,0.34,1.55
		c0.47,1.02,1.4,1.78,2.54,2.02c0.06,0.01,0.12,0.01,0.19,0.02c0.19,0.03,0.37,0.06,0.56,0.06c2.07,0.03,3.67-1.54,3.7-3.57
		C363.64,8.68,362.74,7.4,361.41,6.85 M359.95,12.98c-1.31-0.02-2.31-0.87-2.63-2.04c-0.07-0.27-0.12-0.55-0.12-0.84
		c0.02-1.57,1.21-2.83,2.8-2.82c0.3,0,0.57,0.06,0.83,0.15c1.14,0.38,1.89,1.46,1.88,2.75C362.69,11.76,361.52,13,359.95,12.98"/>
</g>
</svg>
